<svg width="695" height="125" viewBox="0 0 695 125" fill="none" xmlns="http://www.w3.org/2000/svg">
<path d="M175.824 23.7969H190.326L209.125 79.71L227.87 23.7969H242.372L214.979 102H203.217L175.824 23.7969ZM167.445 23.7969H182.216L184.955 81.751V102H167.445V23.7969ZM235.98 23.7969H250.805V102H233.241V81.751L235.98 23.7969ZM260.526 73.5332V72.4053C260.526 68.1442 261.135 64.2233 262.353 60.6426C263.57 57.026 265.36 53.8929 267.724 51.2432C270.087 48.5934 272.987 46.5345 276.425 45.0664C279.862 43.5625 283.801 42.8105 288.241 42.8105C292.753 42.8105 296.728 43.5625 300.165 45.0664C303.638 46.5345 306.557 48.5934 308.92 51.2432C311.283 53.8929 313.074 57.026 314.291 60.6426C315.508 64.2233 316.117 68.1442 316.117 72.4053V73.5332C316.117 77.7585 315.508 81.6794 314.291 85.2959C313.074 88.8766 311.283 92.0098 308.92 94.6953C306.557 97.3451 303.656 99.404 300.219 100.872C296.781 102.34 292.825 103.074 288.349 103.074C283.909 103.074 279.952 102.34 276.479 100.872C273.005 99.404 270.087 97.3451 267.724 94.6953C265.36 92.0098 263.57 88.8766 262.353 85.2959C261.135 81.6794 260.526 77.7585 260.526 73.5332ZM277.338 72.4053V73.5332C277.338 75.8249 277.517 77.9733 277.875 79.9785C278.269 81.9837 278.896 83.7383 279.755 85.2422C280.614 86.7461 281.742 87.9277 283.139 88.7871C284.571 89.6107 286.308 90.0225 288.349 90.0225C290.39 90.0225 292.108 89.6107 293.505 88.7871C294.901 87.9277 296.029 86.7461 296.889 85.2422C297.748 83.7383 298.357 81.9837 298.715 79.9785C299.109 77.9733 299.306 75.8249 299.306 73.5332V72.4053C299.306 70.1494 299.109 68.0368 298.715 66.0674C298.357 64.0622 297.748 62.2897 296.889 60.75C296.029 59.2103 294.883 58.0107 293.451 57.1514C292.055 56.292 290.318 55.8623 288.241 55.8623C286.236 55.8623 284.535 56.292 283.139 57.1514C281.742 58.0107 280.614 59.2103 279.755 60.75C278.896 62.2897 278.269 64.0622 277.875 66.0674C277.517 68.0368 277.338 70.1494 277.338 72.4053ZM344.423 90.1299L356.562 43.8848H374.179L354.896 102H344.315L344.423 90.1299ZM336.581 43.8848L348.666 90.1836L348.773 102H338.192L318.91 43.8848H336.581ZM398.026 43.8848V102H381.215V43.8848H398.026ZM380.194 28.8457C380.194 26.4108 381.054 24.4235 382.772 22.8838C384.491 21.3083 386.747 20.5205 389.54 20.5205C392.333 20.5205 394.589 21.3083 396.308 22.8838C398.062 24.4235 398.939 26.4108 398.939 28.8457C398.939 31.2448 398.062 33.2321 396.308 34.8076C394.589 36.3473 392.333 37.1172 389.54 37.1172C386.747 37.1172 384.491 36.3473 382.772 34.8076C381.054 33.2321 380.194 31.2448 380.194 28.8457ZM437.504 103.074C432.885 103.074 428.749 102.34 425.097 100.872C421.444 99.404 418.347 97.3809 415.805 94.8027C413.298 92.1888 411.382 89.181 410.058 85.7793C408.733 82.3776 408.07 78.7432 408.07 74.876V72.835C408.07 68.5023 408.679 64.5098 409.896 60.8574C411.114 57.2051 412.886 54.0361 415.214 51.3506C417.577 48.6292 420.478 46.5345 423.915 45.0664C427.353 43.5625 431.273 42.8105 435.678 42.8105C439.796 42.8105 443.466 43.4909 446.688 44.8516C449.911 46.1764 452.632 48.0921 454.853 50.5986C457.073 53.0693 458.756 56.0592 459.901 59.5684C461.083 63.0417 461.674 66.9447 461.674 71.2773V78.1523H414.838V67.3564H445.238V66.0674C445.238 64.0264 444.862 62.236 444.11 60.6963C443.394 59.1566 442.32 57.9749 440.888 57.1514C439.491 56.292 437.719 55.8623 435.57 55.8623C433.529 55.8623 431.828 56.292 430.468 57.1514C429.107 58.0107 428.015 59.2282 427.191 60.8037C426.404 62.3434 425.831 64.1517 425.473 66.2285C425.115 68.2695 424.936 70.4717 424.936 72.835V74.876C424.936 77.1318 425.24 79.1908 425.849 81.0527C426.457 82.9147 427.353 84.5081 428.534 85.833C429.716 87.1579 431.148 88.1963 432.831 88.9482C434.514 89.7002 436.43 90.0762 438.578 90.0762C441.228 90.0762 443.752 89.5749 446.151 88.5723C448.55 87.5339 450.627 85.9225 452.382 83.7383L460.224 92.708C459.042 94.4268 457.377 96.0918 455.229 97.7031C453.116 99.2786 450.574 100.568 447.602 101.57C444.63 102.573 441.264 103.074 437.504 103.074ZM530.585 38.6748L510.39 102H491.698L520.648 23.7969H532.465L530.585 38.6748ZM547.343 102L527.094 38.6748L524.999 23.7969H536.977L566.034 102H547.343ZM546.483 72.8887V86.4238H505.717V72.8887H546.483ZM586.337 55.0566V124.344H569.579V43.8848H585.209L586.337 55.0566ZM622.592 72.2979V73.4258C622.592 77.651 622.108 81.5719 621.142 85.1885C620.175 88.7692 618.725 91.9023 616.791 94.5879C614.893 97.2734 612.548 99.3682 609.755 100.872C606.962 102.34 603.721 103.074 600.033 103.074C596.524 103.074 593.48 102.34 590.902 100.872C588.36 99.3682 586.212 97.2913 584.457 94.6416C582.738 91.9561 581.342 88.8945 580.268 85.457C579.229 81.9837 578.424 78.2777 577.851 74.3389V72.1367C578.424 67.9473 579.247 64.0622 580.321 60.4814C581.396 56.9007 582.792 53.8034 584.511 51.1895C586.229 48.5397 588.36 46.4808 590.902 45.0127C593.445 43.5446 596.47 42.8105 599.979 42.8105C603.632 42.8105 606.872 43.5088 609.701 44.9053C612.53 46.3018 614.893 48.307 616.791 50.9209C618.725 53.499 620.175 56.5964 621.142 60.2129C622.108 63.8294 622.592 67.8577 622.592 72.2979ZM605.78 73.4258V72.2979C605.78 69.9346 605.601 67.7682 605.243 65.7988C604.885 63.7936 604.312 62.057 603.524 60.5889C602.737 59.085 601.698 57.9212 600.409 57.0977C599.12 56.2741 597.545 55.8623 595.683 55.8623C593.677 55.8623 591.977 56.1846 590.58 56.8291C589.184 57.4736 588.056 58.4225 587.196 59.6758C586.337 60.8932 585.71 62.3971 585.316 64.1875C584.958 65.9779 584.761 68.0189 584.726 70.3105V76.2188C584.761 78.9043 585.137 81.3034 585.854 83.416C586.605 85.4928 587.769 87.1221 589.345 88.3037C590.956 89.4495 593.104 90.0225 595.79 90.0225C597.688 90.0225 599.263 89.6107 600.517 88.7871C601.806 87.9277 602.826 86.7282 603.578 85.1885C604.366 83.6488 604.921 81.8763 605.243 79.8711C605.601 77.8659 605.78 75.7174 605.78 73.4258ZM648.319 55.0566V124.344H631.562V43.8848H647.191L648.319 55.0566ZM684.574 72.2979V73.4258C684.574 77.651 684.091 81.5719 683.124 85.1885C682.157 88.7692 680.707 91.9023 678.773 94.5879C676.876 97.2734 674.53 99.3682 671.737 100.872C668.944 102.34 665.704 103.074 662.016 103.074C658.507 103.074 655.463 102.34 652.885 100.872C650.342 99.3682 648.194 97.2913 646.439 94.6416C644.721 91.9561 643.324 88.8945 642.25 85.457C641.212 81.9837 640.406 78.2777 639.833 74.3389V72.1367C640.406 67.9473 641.229 64.0622 642.304 60.4814C643.378 56.9007 644.774 53.8034 646.493 51.1895C648.212 48.5397 650.342 46.4808 652.885 45.0127C655.427 43.5446 658.453 42.8105 661.962 42.8105C665.614 42.8105 668.855 43.5088 671.684 44.9053C674.512 46.3018 676.876 48.307 678.773 50.9209C680.707 53.499 682.157 56.5964 683.124 60.2129C684.091 63.8294 684.574 67.8577 684.574 72.2979ZM667.763 73.4258V72.2979C667.763 69.9346 667.584 67.7682 667.226 65.7988C666.868 63.7936 666.295 62.057 665.507 60.5889C664.719 59.085 663.681 57.9212 662.392 57.0977C661.103 56.2741 659.527 55.8623 657.665 55.8623C655.66 55.8623 653.959 56.1846 652.562 56.8291C651.166 57.4736 650.038 58.4225 649.179 59.6758C648.319 60.8932 647.693 62.3971 647.299 64.1875C646.941 65.9779 646.744 68.0189 646.708 70.3105V76.2188C646.744 78.9043 647.12 81.3034 647.836 83.416C648.588 85.4928 649.752 87.1221 651.327 88.3037C652.938 89.4495 655.087 90.0225 657.772 90.0225C659.67 90.0225 661.246 89.6107 662.499 88.7871C663.788 87.9277 664.809 86.7282 665.561 85.1885C666.348 83.6488 666.903 81.8763 667.226 79.8711C667.584 77.8659 667.763 75.7174 667.763 73.4258Z" fill="white"/>
<path d="M87.5521 12H12.4479C5.57292 12 0 17.5729 0 24.4479V99.5521C0 106.427 5.57292 112 12.4479 112H87.5521C94.4271 112 100 106.427 100 99.5521V24.4479C100 17.5729 94.4271 12 87.5521 12ZM136.875 21.8177L108.333 41.5052V82.4948L136.875 102.156C142.396 105.958 150 102.078 150 95.4375V28.5365C150 21.9219 142.422 18.0156 136.875 21.8177Z" fill="white"/>
</svg>
